<svg width="1920" height="546" viewBox="0 0 1920 546" fill="none" xmlns="http://www.w3.org/2000/svg">
<path d="M0 545.824H1920V11.6802C1896.17 1.52268 1870.07 -2.10486 1844.38 1.17078C1818.69 4.44642 1794.33 14.5069 1773.82 30.3175C1753.3 46.1282 1737.37 67.1182 1727.65 91.1288C1717.94 115.139 1714.8 141.304 1718.55 166.931C1709.54 165.796 1700.42 165.7 1691.39 166.643C1696.57 157.72 1699.36 147.606 1699.47 137.286C1699.59 126.965 1697.02 116.792 1692.04 107.756C1687.05 98.721 1679.8 91.1323 1671.01 85.7301C1662.22 80.328 1652.17 77.2966 1641.86 76.9317C1631.54 76.5667 1621.31 78.8807 1612.16 83.6478C1603 88.4149 1595.24 95.4726 1589.62 104.133C1584.01 112.793 1580.74 122.76 1580.12 133.063C1579.5 143.365 1581.57 153.651 1586.11 162.918C1575.1 157.928 1562.95 155.962 1550.92 157.221C1538.89 158.48 1527.42 162.92 1517.67 170.083C1507.93 177.246 1500.27 186.875 1495.48 197.98C1490.69 209.084 1488.94 221.264 1490.42 233.267C1489.09 232.902 1487.75 232.538 1486.41 232.231C1469.45 228.297 1451.77 228.681 1435 233.347C1418.23 238.013 1402.9 246.812 1390.41 258.938C1371.02 252.589 1350.01 253.359 1331.14 261.107C1326.36 263.074 1321.76 265.464 1317.41 268.25C1316.95 266.944 1316.47 265.638 1315.95 264.41C1311.95 254.66 1305.87 245.903 1298.13 238.752C1290.4 231.601 1281.19 226.229 1271.15 223.014C1261.12 219.799 1250.5 218.819 1240.05 220.141C1229.59 221.464 1219.56 225.057 1210.64 230.669C1201.72 236.282 1194.14 243.777 1188.43 252.63C1182.71 261.483 1179 271.479 1177.56 281.916C1176.12 292.354 1176.98 302.98 1180.08 313.051C1183.18 323.121 1188.45 332.391 1195.51 340.211C1184.7 335.567 1173.02 333.303 1161.26 333.575C1149.5 333.846 1137.94 336.647 1127.36 341.786C1116.78 346.924 1107.43 354.281 1099.95 363.356C1092.47 372.43 1087.02 383.009 1083.99 394.374C1069.72 384.402 1053.17 378.171 1035.86 376.252C1018.55 374.334 1001.04 376.788 984.922 383.392C983.635 383.911 982.368 384.487 981.082 385.063C980.626 372.972 976.957 361.221 970.453 351.019C963.95 340.817 954.845 332.531 944.077 327.015C933.308 321.499 921.265 318.951 909.185 319.634C897.105 320.317 885.426 324.205 875.347 330.899C878.342 321.029 878.728 310.55 876.469 300.486C874.21 290.421 869.382 281.114 862.456 273.47C855.53 265.826 846.742 260.107 836.948 256.869C827.154 253.632 816.689 252.987 806.572 254.996C796.455 257.006 787.03 261.603 779.218 268.338C771.405 275.073 765.471 283.717 761.992 293.428C758.514 303.139 757.611 313.585 759.37 323.749C761.129 333.913 765.492 343.448 772.032 351.424C762.962 351.944 753.982 353.503 745.267 356.071C744.436 319.184 729.662 283.982 703.919 257.55C678.177 231.118 643.377 215.419 606.526 213.613C569.674 211.808 533.506 224.029 505.303 247.818C477.1 271.606 458.955 305.195 454.522 341.824C451.001 333.862 445.808 326.751 439.296 320.973C432.784 315.195 425.105 310.886 416.781 308.338C408.457 305.79 399.681 305.062 391.051 306.205C382.421 307.347 374.137 310.333 366.763 314.959C359.388 319.586 353.095 325.745 348.311 333.018C343.527 340.291 340.363 348.509 339.035 357.112C337.707 365.716 338.246 374.505 340.614 382.882C342.982 391.26 347.125 399.029 352.762 405.664C343.806 401.467 334.052 399.248 324.162 399.158C314.272 399.067 304.479 401.109 295.448 405.142C286.418 409.175 278.362 415.106 271.829 422.532C265.295 429.957 260.438 438.702 257.587 448.173C245.861 439.408 232.124 433.726 217.633 431.646C203.142 429.566 188.361 431.156 174.643 436.269C173.549 436.672 172.474 437.114 171.398 437.574C171.343 427.401 168.578 417.426 163.387 408.676C158.197 399.925 150.769 392.716 141.867 387.79C132.965 382.864 122.912 380.399 112.741 380.649C102.57 380.898 92.6495 383.853 84 389.21C87.7131 378.361 87.598 366.568 83.6737 355.794C79.7494 345.02 72.2529 335.915 62.4323 329.996C52.6118 324.076 41.0599 321.7 29.7002 323.262C18.3406 324.823 7.8587 330.229 0 338.579L0 545.824Z" fill="url(#paint0_linear_6_254)"/>
<defs>
<linearGradient id="paint0_linear_6_254" x1="937.402" y1="150.611" x2="1034.63" y2="701.939" gradientUnits="userSpaceOnUse">
<stop stop-color="#826DD6"/>
<stop offset="0.05" stop-color="#8266CD"/>
<stop offset="0.33" stop-color="#81409E"/>
<stop offset="0.55" stop-color="#812981"/>
<stop offset="0.68" stop-color="#812076"/>
<stop offset="0.74" stop-color="#741E6E"/>
<stop offset="1" stop-color="#3A184C"/>
</linearGradient>
</defs>
</svg>
