<svg width="1920" height="491" viewBox="0 0 1920 491" fill="none" xmlns="http://www.w3.org/2000/svg">
<path d="M1920 4.12315C1916.58 3.22075 1913.11 2.43353 1909.54 1.81913C1889.85 -1.57708 1869.63 -0.114607 1850.63 6.07936C1831.63 12.2733 1814.44 23.0115 1800.53 37.3612C1786.63 51.7109 1776.44 69.2381 1770.85 88.4203C1765.26 107.603 1764.44 127.86 1768.45 147.432C1760.82 146.909 1753.16 147.263 1745.61 148.488C1749.54 140.742 1751.39 132.111 1750.99 123.435C1750.59 114.759 1747.95 106.335 1743.33 98.9829C1738.7 91.6312 1732.25 85.6032 1724.61 81.4865C1716.96 77.3697 1708.37 75.3048 1699.69 75.4929C1691.01 75.681 1682.52 78.1158 1675.06 82.5599C1667.6 87.004 1661.41 93.3056 1657.11 100.851C1652.81 108.396 1650.54 116.927 1650.51 125.612C1650.49 134.297 1652.72 142.84 1656.98 150.408C1647.48 146.739 1637.17 145.668 1627.12 147.304C1617.07 148.94 1607.64 153.225 1599.79 159.717C1591.95 166.209 1585.97 174.675 1582.49 184.242C1579 193.81 1578.12 204.134 1579.95 214.152C1578.82 213.902 1577.68 213.672 1576.53 213.48C1562.09 210.988 1547.26 212.159 1533.39 216.886C1519.52 221.612 1507.05 229.742 1497.14 240.533C1480.55 236.131 1462.93 237.785 1447.45 245.198C1443.53 247.076 1439.78 249.299 1436.26 251.842C1435.81 250.766 1435.35 249.691 1434.84 248.616C1431.01 240.614 1425.48 233.546 1418.64 227.908C1411.79 222.269 1403.8 218.197 1395.21 215.976C1386.63 213.755 1377.66 213.44 1368.94 215.052C1360.22 216.665 1351.95 220.166 1344.73 225.31C1337.51 230.454 1331.49 237.116 1327.12 244.83C1322.74 252.543 1320.11 261.12 1319.4 269.96C1318.69 278.8 1319.92 287.689 1323.01 296.001C1326.1 304.314 1330.97 311.851 1337.28 318.082C1327.98 314.696 1318.05 313.354 1308.19 314.146C1298.32 314.937 1288.74 317.845 1280.09 322.671C1271.45 327.496 1263.95 334.127 1258.09 342.111C1252.24 350.096 1248.18 359.247 1246.18 368.942C1233.71 361.249 1219.5 356.809 1204.87 356.027C1190.24 355.246 1175.65 358.148 1162.43 364.469C1161.37 364.968 1160.33 365.506 1159.32 366.062C1158.35 355.924 1154.71 346.224 1148.75 337.962C1142.8 329.7 1134.75 323.174 1125.44 319.055C1116.12 314.937 1105.88 313.375 1095.76 314.53C1085.64 315.685 1076.01 319.515 1067.87 325.627C1069.9 317.191 1069.72 308.372 1067.34 300.027C1064.95 291.682 1060.45 284.097 1054.26 278.011C1048.08 271.924 1040.42 267.544 1032.04 265.296C1023.66 263.048 1014.84 263.009 1006.43 265.184C998.032 267.359 990.337 271.672 984.098 277.705C977.859 283.737 973.289 291.282 970.832 299.606C968.376 307.929 968.118 316.747 970.082 325.201C972.046 333.654 976.167 341.454 982.042 347.842C974.444 348.712 966.971 350.451 959.77 353.026C957.479 321.951 943.457 292.911 920.547 271.793C897.636 250.676 867.552 239.061 836.394 239.305C805.236 239.55 775.338 251.634 752.761 273.108C730.184 294.583 716.619 323.839 714.816 354.946C711.467 348.44 706.76 342.731 701.012 338.203C695.265 333.675 688.612 330.435 681.503 328.702C674.395 326.969 666.997 326.784 659.81 328.159C652.624 329.534 645.817 332.437 639.85 336.671C633.883 340.906 628.896 346.373 625.226 352.702C621.556 359.032 619.288 366.076 618.577 373.358C617.866 380.64 618.728 387.99 621.105 394.91C623.481 401.83 627.317 408.159 632.352 413.467C624.624 410.374 616.321 408.981 608.007 409.384C599.693 409.786 591.563 411.975 584.17 415.801C576.777 419.626 570.295 424.999 565.165 431.554C560.035 438.109 556.376 445.692 554.438 453.787C544.165 446.982 532.349 442.865 520.071 441.812C507.794 440.758 495.449 442.803 484.166 447.758C483.264 448.162 482.381 448.584 481.517 449.006C480.991 440.458 478.195 432.204 473.418 425.095C468.641 417.987 462.054 412.28 454.338 408.564C446.622 404.847 438.054 403.256 429.517 403.952C420.981 404.649 412.785 407.608 405.773 412.526C407.714 405.494 407.801 398.078 406.025 391.002C404.248 383.925 400.67 377.43 395.637 372.148C390.604 366.866 384.289 362.977 377.307 360.861C370.324 358.745 362.913 358.474 355.795 360.074C348.676 361.673 342.094 365.089 336.688 369.989C331.282 374.889 327.238 381.105 324.949 388.033C322.66 394.96 322.204 402.362 323.626 409.518C325.048 416.674 328.299 423.34 333.062 428.866C326.651 429.419 320.325 430.707 314.208 432.706C313.06 406.059 301.635 380.893 282.33 362.49C263.025 344.086 237.342 333.877 210.671 334.003C184 334.13 158.415 344.583 139.286 363.169C120.157 381.755 108.971 407.029 108.077 433.685C98.4313 425.698 86.7125 420.621 74.2891 419.046C61.8656 417.471 49.2506 419.464 37.9174 424.791C26.5843 430.119 17.0009 438.561 10.2867 449.131C3.57248 459.702 0.00467236 471.965 0 484.488C0 486.523 0.1344 488.539 0.3072 490.517H1920V4.12315Z" fill="url(#paint0_linear_6_252)"/>
<defs>
<linearGradient id="paint0_linear_6_252" x1="945.542" y1="164.405" x2="1030.69" y2="647.323" gradientUnits="userSpaceOnUse">
<stop stop-color="#826DD6"/>
<stop offset="0.05" stop-color="#8266CD"/>
<stop offset="0.33" stop-color="#81409E"/>
<stop offset="0.55" stop-color="#812981"/>
<stop offset="0.68" stop-color="#812076"/>
<stop offset="0.74" stop-color="#741E6E"/>
<stop offset="1" stop-color="#3A184C"/>
</linearGradient>
</defs>
</svg>
