<svg width="120" height="10" viewBox="0 0 120 10" fill="none" xmlns="http://www.w3.org/2000/svg">
<path d="M0 8.95801C9.84434 6.92322 19.7863 5.4541 29.7568 4.17624C32.2515 3.87102 34.7462 3.56173 37.2449 3.30127C39.7436 3.04082 42.2423 2.7356 44.7451 2.51584L52.2617 1.85657L59.7823 1.30311C61.0398 1.20137 62.2932 1.10776 63.5467 1.03858L67.3151 0.778146C69.826 0.603153 72.337 0.395604 74.852 0.269447L78.6245 0.106654C79.882 0.0740968 81.1435 0.0252657 82.401 0.00898735C84.9161 -0.027639 87.4352 0.0537598 89.9502 0.143291C100.014 0.55025 110.07 1.56763 120 3.70823L119.967 4.31462C117.44 4.67274 114.929 4.87621 112.418 5.08783C109.907 5.29945 107.409 5.4012 104.906 5.58433C99.9003 5.90583 94.911 6.0442 89.9257 6.24768C87.4311 6.33314 84.9364 6.34534 82.4458 6.36569C81.2005 6.36569 79.9512 6.36569 78.7059 6.36569L74.9659 6.30463C72.4713 6.2151 69.9725 6.20696 67.4779 6.1744C64.9832 6.14185 62.4845 6.11336 59.9858 6.1744L52.4977 6.31278L45.0097 6.55694C42.5109 6.60985 40.0163 6.74415 37.5176 6.83775C35.0188 6.93135 32.5242 7.06973 30.0295 7.20809C20.0427 7.73714 10.056 8.4656 0.10174 9.55218L0 8.95801Z" fill="#FF7DC3"/>
</svg>
