<svg width="501" height="360" viewBox="0 0 501 360" fill="none" xmlns="http://www.w3.org/2000/svg">
<path opacity="0.15" d="M195.031 348.389C102.109 314.086 54.3938 210.621 88.6775 117.698C122.961 24.7753 226.432 -22.9461 319.368 11.3376C412.304 45.6213 460.006 149.099 425.722 242.022C391.439 334.945 287.961 382.659 195.031 348.389Z" fill="white"/>
<path opacity="0.45" d="M207.467 314.673C133.127 287.25 94.9577 204.46 122.368 130.12C149.777 55.7803 232.594 17.6177 306.914 45.0407C381.233 72.4637 419.442 155.254 392.013 229.593C364.583 303.933 281.806 342.096 207.467 314.673Z" fill="white"/>
<path d="M370.984 221.842C394.167 159.003 362.019 89.2688 299.18 66.0863C236.341 42.9038 166.607 75.0517 143.424 137.891C120.242 200.73 152.39 270.464 215.229 293.646C278.068 316.829 347.802 284.681 370.984 221.842Z" fill="url(#paint0_linear_6_224)"/>
<g style="mix-blend-mode:multiply" opacity="0.3">
<path d="M287.163 105.547C303.655 103.495 317.04 91.456 332.146 84.6547C315.637 71.5841 296.008 63.0402 275.192 59.8648C254.376 56.6895 233.092 58.9924 213.437 66.5464C221.036 71.8833 228.194 78.1436 235.325 84.028C250.181 96.2783 268.058 107.928 287.163 105.547Z" fill="url(#paint1_linear_6_224)"/>
</g>
<path d="M374.861 210.106C374.557 211.188 374.201 212.257 373.832 213.312C425.828 238.156 455.632 258.422 452.829 266.041C448.376 278.113 361.205 261.232 243.234 217.713C125.263 174.193 48.0147 130.417 52.4676 118.345C55.2778 110.732 91.0458 114.664 146.657 129.513C147.046 128.458 147.488 127.422 147.976 126.399C94.5421 111.972 53.5494 106.035 49.4264 117.21C42.5789 135.773 143.603 184.425 242.133 220.78C340.663 257.135 449.049 285.719 455.896 267.169C460.026 255.981 424.937 233.868 374.861 210.106Z" fill="url(#paint2_linear_6_224)"/>
<path d="M375.976 204.816C375.809 205.871 375.606 206.922 375.369 207.969C455.679 244.911 501.513 276.576 496.935 289.011C490.53 306.374 384.637 288.43 237.212 234.046C89.7858 179.662 -2.3916 124.539 4.01391 107.176C8.59211 94.7742 63.9592 100.408 148.92 124.44C149.408 123.484 149.922 122.547 150.47 121.636C71.2487 99.2072 7.12102 89.312 0.946396 106.048C-8.06486 130.456 113.422 191.873 236.077 237.12C358.732 282.368 490.965 314.567 500.003 290.146C506.184 273.383 450.896 239.225 375.976 204.816Z" fill="url(#paint3_linear_6_224)"/>
<g style="mix-blend-mode:overlay" opacity="0.4">
<path d="M370.984 221.842C394.167 159.003 362.019 89.2688 299.18 66.0863C236.341 42.9038 166.607 75.0517 143.424 137.891C120.242 200.73 152.39 270.464 215.229 293.646C278.068 316.829 347.802 284.681 370.984 221.842Z" fill="#3B83D1"/>
</g>
<defs>
<linearGradient id="paint0_linear_6_224" x1="206.429" y1="69.7258" x2="307.978" y2="289.992" gradientUnits="userSpaceOnUse">
<stop stop-color="#826DD6"/>
<stop offset="0.32" stop-color="#824EB0"/>
<stop offset="0.76" stop-color="#812076"/>
<stop offset="0.84" stop-color="#6E1E6B"/>
<stop offset="0.99" stop-color="#3C184D"/>
<stop offset="1" stop-color="#3A184C"/>
</linearGradient>
<linearGradient id="paint1_linear_6_224" x1="258.813" y1="45.2967" x2="360.357" y2="265.561" gradientUnits="userSpaceOnUse">
<stop stop-color="#FFF6E5"/>
<stop offset="0.12" stop-color="#FFE5D9"/>
<stop offset="0.53" stop-color="#FFB0B3"/>
<stop offset="0.83" stop-color="#FF8F9B"/>
<stop offset="1" stop-color="#FF8392"/>
</linearGradient>
<linearGradient id="paint2_linear_6_224" x1="49.0702" y1="192.196" x2="456.226" y2="192.196" gradientUnits="userSpaceOnUse">
<stop offset="0.01" stop-color="#7240D6"/>
<stop offset="0.43" stop-color="#7A69EB"/>
<stop offset="0.79" stop-color="#8086F9"/>
<stop offset="1" stop-color="#8291FF"/>
</linearGradient>
<linearGradient id="paint3_linear_6_224" x1="0.478022" y1="198.1" x2="500.471" y2="198.1" gradientUnits="userSpaceOnUse">
<stop offset="0.01" stop-color="#7240D6"/>
<stop offset="0.43" stop-color="#7A69EB"/>
<stop offset="0.79" stop-color="#8086F9"/>
<stop offset="1" stop-color="#8291FF"/>
</linearGradient>
</defs>
</svg>
