<svg width="1000" height="717" viewBox="0 0 1000 717" fill="none" xmlns="http://www.w3.org/2000/svg">
<path opacity="0.45" d="M209.876 399.51C214.273 399.51 217.837 395.946 217.837 391.549C217.837 387.153 214.273 383.589 209.876 383.589C205.48 383.589 201.915 387.153 201.915 391.549C201.915 395.946 205.48 399.51 209.876 399.51Z" fill="#F2E6FF"/>
<path opacity="0.45" d="M293.194 283.932C300.522 283.932 306.462 277.992 306.462 270.664C306.462 263.337 300.522 257.396 293.194 257.396C285.867 257.396 279.926 263.337 279.926 270.664C279.926 277.992 285.867 283.932 293.194 283.932Z" fill="#F2E6FF"/>
<path opacity="0.45" d="M7.96072 133.838C12.3573 133.838 15.9214 130.273 15.9214 125.877C15.9214 121.48 12.3573 117.916 7.96072 117.916C3.56413 117.916 0 121.48 0 125.877C0 130.273 3.56413 133.838 7.96072 133.838Z" fill="#F2E6FF"/>
<path opacity="0.45" d="M248.368 217.003C252.765 217.003 256.329 213.439 256.329 209.043C256.329 204.646 252.765 201.082 248.368 201.082C243.972 201.082 240.407 204.646 240.407 209.043C240.407 213.439 243.972 217.003 248.368 217.003Z" fill="#F2E6FF"/>
<path opacity="0.45" d="M992.039 474.461C996.436 474.461 1000 470.897 1000 466.5C1000 462.103 996.436 458.539 992.039 458.539C987.643 458.539 984.079 462.103 984.079 466.5C984.079 470.897 987.643 474.461 992.039 474.461Z" fill="#F2E6FF"/>
<path opacity="0.45" d="M841.172 556.691C848.5 556.691 854.44 550.751 854.44 543.423C854.44 536.095 848.5 530.155 841.172 530.155C833.845 530.155 827.904 536.095 827.904 543.423C827.904 550.751 833.845 556.691 841.172 556.691Z" fill="#F2E6FF"/>
<path opacity="0.45" d="M334.116 716.19C338.513 716.19 342.077 712.626 342.077 708.229C342.077 703.833 338.513 700.268 334.116 700.268C329.72 700.268 326.156 703.833 326.156 708.229C326.156 712.626 329.72 716.19 334.116 716.19Z" fill="#F2E6FF"/>
<path opacity="0.45" d="M771.518 130.655C774.157 130.655 776.297 128.516 776.297 125.877C776.297 123.238 774.157 121.098 771.518 121.098C768.879 121.098 766.74 123.238 766.74 125.877C766.74 128.516 768.879 130.655 771.518 130.655Z" fill="#F2E6FF"/>
<path opacity="0.45" d="M720.806 81.4677C728.133 81.4677 734.073 75.5274 734.073 68.1998C734.073 60.8722 728.133 54.9319 720.806 54.9319C713.478 54.9319 707.538 60.8722 707.538 68.1998C707.538 75.5274 713.478 81.4677 720.806 81.4677Z" fill="#F2E6FF"/>
<path opacity="0.45" d="M992.039 9.55693C994.679 9.55693 996.818 7.41753 996.818 4.77846C996.818 2.13939 994.679 0 992.039 0C989.4 0 987.261 2.13939 987.261 4.77846C987.261 7.41753 989.4 9.55693 992.039 9.55693Z" fill="#F2E6FF"/>
<path opacity="0.45" d="M953.649 551.384C958.046 551.384 961.61 547.82 961.61 543.423C961.61 539.026 958.046 535.462 953.649 535.462C949.252 535.462 945.688 539.026 945.688 543.423C945.688 547.82 949.252 551.384 953.649 551.384Z" fill="#F2E6FF"/>
</svg>
