<svg width="950" height="1202" viewBox="0 0 950 1202" fill="none" xmlns="http://www.w3.org/2000/svg">
<g filter="url(#filter0_d_6_202)">
<path d="M358.317 801.17L309.777 765.608L313.802 740.766L380.79 789.838L358.317 801.17Z" fill="url(#paint0_linear_6_202)"/>
<path d="M622.827 734.011C625.668 698.469 615.038 664.222 591.32 631.722C549.736 669.602 508.875 703.749 474.889 731.01C494.592 765.638 510.079 837.404 428.166 957.981C427.527 958.925 427.234 960.061 427.338 961.196C427.441 962.332 427.934 963.396 428.733 964.21C429.532 965.023 430.588 965.534 431.721 965.658C432.855 965.781 433.996 965.509 434.951 964.886C582.698 868.308 618.672 786.024 622.827 734.011Z" fill="url(#paint1_linear_6_202)"/>
<path d="M294.019 493.148C327.051 479.719 362.914 479.528 401.045 492.345C377.468 543.415 357.243 592.717 341.475 633.258C302.51 624.917 229.42 631.782 139.155 746.256C138.448 747.151 137.453 747.774 136.339 748.018C135.225 748.263 134.06 748.114 133.043 747.597C132.027 747.08 131.22 746.228 130.76 745.184C130.301 744.14 130.217 742.969 130.523 741.87C178.069 571.9 245.68 512.801 294.019 493.148Z" fill="url(#paint2_linear_6_202)"/>
<path d="M834.241 100.564C832.836 100.624 706.768 84.0325 565.786 226.561C424.804 369.089 305.01 732.917 304.578 734.011L390.005 796.593C390.928 795.85 701.76 571.9 795.086 394.513C888.411 217.126 834.602 101.919 834.241 100.564Z" fill="url(#paint3_linear_6_202)"/>
<path d="M834.241 100.564C833.026 100.614 737.342 88.1176 619.595 178.854C650.461 207.959 683.112 235.113 717.357 260.155C751.545 285.243 787.263 308.175 824.304 328.819C875.323 189.202 834.562 101.738 834.241 100.564Z" fill="url(#paint4_linear_6_202)"/>
<path d="M707.862 404.605C733.24 369.955 725.724 321.292 691.074 295.913C656.424 270.535 607.761 278.051 582.382 312.701C557.003 347.351 564.519 396.014 599.17 421.393C633.82 446.772 682.483 439.256 707.862 404.605Z" fill="url(#paint5_linear_6_202)"/>
<path d="M700.292 399.064C722.605 368.6 715.997 325.815 685.533 303.503C655.068 281.19 612.284 287.798 589.971 318.262C567.658 348.726 574.266 391.511 604.731 413.824C635.195 436.136 677.979 429.528 700.292 399.064Z" fill="url(#paint6_linear_6_202)"/>
<path style="mix-blend-mode:multiply" opacity="0.7" d="M713.483 356.171C712.989 366.402 710.137 376.38 705.149 385.327C700.161 394.273 693.173 401.945 684.729 407.744C676.286 413.544 666.617 417.313 656.476 418.757C646.336 420.202 635.999 419.282 626.272 416.072C616.545 412.861 607.693 407.445 600.405 400.247C593.117 393.049 587.592 384.264 584.261 374.578C580.93 364.892 579.882 354.567 581.201 344.41C582.52 334.252 586.169 324.537 591.863 316.022C591.26 316.775 590.618 317.477 590.046 318.26C583.593 327.056 579.339 337.267 577.638 348.042C575.937 358.817 576.839 369.842 580.268 380.198C583.697 390.553 589.554 399.938 597.35 407.568C605.145 415.198 614.654 420.852 625.08 424.058C635.507 427.264 646.549 427.928 657.285 425.996C668.021 424.064 678.138 419.592 686.793 412.952C695.448 406.312 702.388 397.698 707.035 387.829C711.682 377.96 713.899 367.122 713.503 356.221L713.483 356.171Z" fill="url(#paint7_linear_6_202)"/>
<path opacity="0.5" d="M701.168 362.645C702.066 360.396 702.634 358.03 702.854 355.619C703.356 350.249 702.563 344.387 699.562 339.78C697.012 335.856 692.696 334.531 690.036 338.987C687.025 343.956 691.763 350.52 690.649 356.05C690.207 358.279 689.334 360.417 689.153 362.675C688.731 367.954 693.168 370.765 697.514 367.694C699.172 366.377 700.436 364.631 701.168 362.645Z" fill="#79678D"/>
<path d="M704.209 357.626C704.673 355.474 704.825 353.267 704.66 351.072C704.279 346.154 702.653 341.035 699.26 337.301C696.35 334.159 692.234 333.627 690.548 338.054C688.641 342.982 693.88 348.181 693.73 353.36C693.501 355.42 693.394 357.491 693.409 359.563C693.84 364.381 698.237 366.238 701.71 362.755C702.997 361.307 703.862 359.533 704.209 357.626Z" fill="#79678D"/>
<path opacity="0.5" d="M634.139 300.003C632.101 300.002 630.074 300.289 628.117 300.856C623.04 302.247 618.405 304.918 614.657 308.615C611.385 311.957 610.401 315.912 614.326 316.644C618.692 317.488 624.152 311.535 628.95 310.672C630.876 310.481 632.79 310.18 634.681 309.769C639.218 308.424 641.466 303.927 638.636 301.338C637.34 300.379 635.748 299.907 634.139 300.003Z" fill="#79678D"/>
<path d="M634.892 299.39C633.714 299.24 632.522 299.257 631.349 299.441C628.321 299.877 625.456 301.083 623.028 302.944C620.9 304.64 620.017 306.848 622.245 307.561C624.704 308.364 628.267 305.333 631.108 305.182C632.233 305.213 633.359 305.18 634.48 305.082C637.19 304.64 638.816 302.201 637.371 300.505C636.699 299.856 635.823 299.462 634.892 299.39Z" fill="#79678D"/>
<path opacity="0.5" d="M695.047 382.039C696.026 380.701 695.736 378.824 694.399 377.844C693.062 376.865 691.184 377.155 690.205 378.492C689.225 379.829 689.515 381.707 690.853 382.687C692.19 383.666 694.068 383.376 695.047 382.039Z" fill="#79678D"/>
<path opacity="0.5" d="M651.413 303.705C652.173 302.667 651.948 301.21 650.911 300.45C649.873 299.69 648.416 299.915 647.656 300.953C646.896 301.99 647.121 303.447 648.159 304.207C649.196 304.967 650.654 304.742 651.413 303.705Z" fill="#79678D"/>
<path d="M695.523 380.31C696.264 379.3 696.045 377.88 695.034 377.14C694.024 376.399 692.604 376.618 691.864 377.629C691.123 378.639 691.342 380.059 692.353 380.799C693.364 381.54 694.783 381.321 695.523 380.31Z" fill="#79678D"/>
<path d="M651.136 302.584C651.65 301.882 651.498 300.896 650.796 300.381C650.094 299.867 649.108 300.019 648.594 300.721C648.079 301.423 648.231 302.409 648.933 302.924C649.635 303.438 650.622 303.286 651.136 302.584Z" fill="#79678D"/>
<path d="M283.48 857.88L277.146 853.233L420.327 616.777L481.624 541.206L519.314 568.819L465.755 650.03L283.48 857.88Z" fill="url(#paint8_linear_6_202)"/>
<path opacity="0.3" d="M358.317 801.17L309.777 765.608C309.777 765.608 188.167 795.449 100 1099.63L103.091 1101.89C366.538 926.153 358.317 801.17 358.317 801.17Z" fill="url(#paint9_linear_6_202)"/>
<path d="M358.317 801.17L309.777 765.608C309.777 765.608 234.498 792.498 173.633 1002.38C355.396 881.096 358.317 801.17 358.317 801.17Z" fill="url(#paint10_linear_6_202)"/>
</g>
<defs>
<filter id="filter0_d_6_202" x="0" y="0" width="950" height="1201.89" filterUnits="userSpaceOnUse" color-interpolation-filters="sRGB">
<feFlood flood-opacity="0" result="BackgroundImageFix"/>
<feColorMatrix in="SourceAlpha" type="matrix" values="0 0 0 0 0 0 0 0 0 0 0 0 0 0 0 0 0 0 127 0" result="hardAlpha"/>
<feOffset/>
<feGaussianBlur stdDeviation="50"/>
<feComposite in2="hardAlpha" operator="out"/>
<feColorMatrix type="matrix" values="0 0 0 0 0.585053 0 0 0 0 0.4312 0 0 0 0 0.8488 0 0 0 1 0"/>
<feBlend mode="normal" in2="BackgroundImageFix" result="effect1_dropShadow_6_202"/>
<feBlend mode="normal" in="SourceGraphic" in2="effect1_dropShadow_6_202" result="shape"/>
</filter>
<linearGradient id="paint0_linear_6_202" x1="316.083" y1="761.075" x2="383.352" y2="810.073" gradientUnits="userSpaceOnUse">
<stop stop-color="#673266"/>
<stop offset="0.08" stop-color="#72356E"/>
<stop offset="0.22" stop-color="#913F82"/>
<stop offset="0.38" stop-color="#BA4B9E"/>
<stop offset="0.45" stop-color="#BE53A1"/>
<stop offset="0.55" stop-color="#CA6AAB"/>
<stop offset="0.68" stop-color="#DE8FBA"/>
<stop offset="0.83" stop-color="#F8C2D0"/>
<stop offset="0.87" stop-color="#FFCFD5"/>
<stop offset="0.91" stop-color="#FFD6DB"/>
<stop offset="0.98" stop-color="#FFE8EB"/>
<stop offset="1" stop-color="#FFF0F2"/>
</linearGradient>
<linearGradient id="paint1_linear_6_202" x1="464.5" y1="768.761" x2="583.663" y2="855.559" gradientUnits="userSpaceOnUse">
<stop stop-color="#A31562"/>
<stop offset="0.2" stop-color="#BF1768"/>
<stop offset="0.49" stop-color="#E41A71"/>
<stop offset="0.65" stop-color="#F21B74"/>
<stop offset="0.67" stop-color="#F4286F"/>
<stop offset="0.82" stop-color="#FC6657"/>
<stop offset="0.89" stop-color="#FF7F4E"/>
<stop offset="0.91" stop-color="#FF8453"/>
<stop offset="0.93" stop-color="#FF9361"/>
<stop offset="0.96" stop-color="#FFAB78"/>
<stop offset="0.98" stop-color="#FFCD98"/>
<stop offset="1" stop-color="#FFE3AC"/>
</linearGradient>
<linearGradient id="paint2_linear_6_202" x1="182.045" y1="604.087" x2="365.108" y2="656.819" gradientUnits="userSpaceOnUse">
<stop stop-color="#FF7F4E"/>
<stop offset="0.1" stop-color="#FC6657"/>
<stop offset="0.31" stop-color="#F4286F"/>
<stop offset="0.35" stop-color="#F21B74"/>
<stop offset="0.47" stop-color="#E41A72"/>
<stop offset="0.68" stop-color="#BF186C"/>
<stop offset="0.96" stop-color="#841563"/>
<stop offset="1" stop-color="#7C1562"/>
</linearGradient>
<linearGradient id="paint3_linear_6_202" x1="480.478" y1="356.122" x2="718.39" y2="529.415" gradientUnits="userSpaceOnUse">
<stop stop-color="#F21B74"/>
<stop offset="0.04" stop-color="#DC196F"/>
<stop offset="0.11" stop-color="#BD1768"/>
<stop offset="0.17" stop-color="#AA1664"/>
<stop offset="0.21" stop-color="#A31562"/>
<stop offset="0.38" stop-color="#991562"/>
<stop offset="0.45" stop-color="#9F1563"/>
<stop offset="0.53" stop-color="#B01767"/>
<stop offset="0.63" stop-color="#CC186C"/>
<stop offset="0.73" stop-color="#F21B74"/>
<stop offset="0.75" stop-color="#F3276D"/>
<stop offset="0.8" stop-color="#F6455B"/>
<stop offset="0.86" stop-color="#FA773E"/>
<stop offset="0.92" stop-color="#FFAD1F"/>
<stop offset="0.93" stop-color="#FFAF24"/>
<stop offset="0.94" stop-color="#FFB533"/>
<stop offset="0.96" stop-color="#FFBE4B"/>
<stop offset="0.98" stop-color="#FFCB6E"/>
<stop offset="0.99" stop-color="#FFDC99"/>
<stop offset="1" stop-color="#FFE3AC"/>
</linearGradient>
<linearGradient id="paint4_linear_6_202" x1="626.271" y1="200.913" x2="858.016" y2="225.555" gradientUnits="userSpaceOnUse">
<stop stop-color="#673266"/>
<stop offset="0.08" stop-color="#72356E"/>
<stop offset="0.22" stop-color="#913F82"/>
<stop offset="0.38" stop-color="#BA4B9E"/>
<stop offset="0.45" stop-color="#BE53A1"/>
<stop offset="0.55" stop-color="#CA6AAB"/>
<stop offset="0.68" stop-color="#DE8FBA"/>
<stop offset="0.83" stop-color="#F8C2D0"/>
<stop offset="0.87" stop-color="#FFCFD5"/>
<stop offset="0.91" stop-color="#FFD6DB"/>
<stop offset="0.98" stop-color="#FFE8EB"/>
<stop offset="1" stop-color="#FFF0F2"/>
</linearGradient>
<linearGradient id="paint5_linear_6_202" x1="568.141" y1="370.636" x2="721.85" y2="346.896" gradientUnits="userSpaceOnUse">
<stop offset="0.14" stop-color="#372345"/>
<stop offset="0.25" stop-color="#3B2448"/>
<stop offset="0.35" stop-color="#472850"/>
<stop offset="0.46" stop-color="#5B2E5E"/>
<stop offset="0.56" stop-color="#773771"/>
<stop offset="0.67" stop-color="#9B4289"/>
<stop offset="0.74" stop-color="#BA4B9E"/>
<stop offset="0.78" stop-color="#BE53A1"/>
<stop offset="0.83" stop-color="#CA6AAB"/>
<stop offset="0.9" stop-color="#DE8FBA"/>
<stop offset="0.98" stop-color="#F8C2D0"/>
<stop offset="1" stop-color="#FFCFD5"/>
</linearGradient>
<linearGradient id="paint6_linear_6_202" x1="589.86" y1="318.38" x2="700.189" y2="399.188" gradientUnits="userSpaceOnUse">
<stop stop-color="#79678D"/>
<stop offset="0.04" stop-color="#5B4C74"/>
<stop offset="0.08" stop-color="#40335E"/>
<stop offset="0.13" stop-color="#2B204C"/>
<stop offset="0.19" stop-color="#1C1240"/>
<stop offset="0.25" stop-color="#130A38"/>
<stop offset="0.35" stop-color="#100836"/>
<stop offset="0.5" stop-color="#130B39"/>
<stop offset="0.62" stop-color="#1D1441"/>
<stop offset="0.74" stop-color="#2E234F"/>
<stop offset="0.84" stop-color="#463963"/>
<stop offset="0.94" stop-color="#65557C"/>
<stop offset="1" stop-color="#79678D"/>
</linearGradient>
<linearGradient id="paint7_linear_6_202" x1="590.719" y1="338.352" x2="701.492" y2="419.038" gradientUnits="userSpaceOnUse">
<stop stop-color="#79678D"/>
<stop offset="0.04" stop-color="#5B4C74"/>
<stop offset="0.08" stop-color="#40335E"/>
<stop offset="0.13" stop-color="#2B204C"/>
<stop offset="0.19" stop-color="#1C1240"/>
<stop offset="0.25" stop-color="#130A38"/>
<stop offset="0.35" stop-color="#100836"/>
<stop offset="0.5" stop-color="#130B39"/>
<stop offset="0.62" stop-color="#1D1441"/>
<stop offset="0.74" stop-color="#2E234F"/>
<stop offset="0.84" stop-color="#463963"/>
<stop offset="0.94" stop-color="#65557C"/>
<stop offset="1" stop-color="#79678D"/>
</linearGradient>
<linearGradient id="paint8_linear_6_202" x1="376.564" y1="699.619" x2="422.157" y2="732.83" gradientUnits="userSpaceOnUse">
<stop offset="0.31" stop-color="#B71666"/>
<stop offset="0.42" stop-color="#C51769"/>
<stop offset="0.62" stop-color="#EB1A72"/>
<stop offset="0.65" stop-color="#F21B74"/>
<stop offset="0.69" stop-color="#F5336B"/>
<stop offset="0.76" stop-color="#FA5C5B"/>
<stop offset="0.82" stop-color="#FE7652"/>
<stop offset="0.86" stop-color="#FF7F4E"/>
<stop offset="0.88" stop-color="#FF8857"/>
<stop offset="0.92" stop-color="#FFA16E"/>
<stop offset="0.97" stop-color="#FFC994"/>
<stop offset="1" stop-color="#FFE3AC"/>
</linearGradient>
<linearGradient id="paint9_linear_6_202" x1="110.986" y1="1113.32" x2="343.109" y2="794.648" gradientUnits="userSpaceOnUse">
<stop stop-color="#FFFFD5"/>
<stop offset="0.18" stop-color="#FFF4C0"/>
<stop offset="0.54" stop-color="#FED88C"/>
<stop offset="0.64" stop-color="#FED07C"/>
<stop offset="0.7" stop-color="#FECA7A"/>
<stop offset="0.79" stop-color="#FEB974"/>
<stop offset="0.88" stop-color="#FF9E6A"/>
<stop offset="0.98" stop-color="#FF775C"/>
<stop offset="1" stop-color="#FF6F59"/>
</linearGradient>
<linearGradient id="paint10_linear_6_202" x1="182.944" y1="1014.54" x2="343.108" y2="794.648" gradientUnits="userSpaceOnUse">
<stop stop-color="#FFFFD5"/>
<stop offset="0.18" stop-color="#FFF4C0"/>
<stop offset="0.54" stop-color="#FED88C"/>
<stop offset="0.64" stop-color="#FED07C"/>
<stop offset="0.7" stop-color="#FECA7A"/>
<stop offset="0.79" stop-color="#FEB974"/>
<stop offset="0.88" stop-color="#FF9E6A"/>
<stop offset="0.98" stop-color="#FF775C"/>
<stop offset="1" stop-color="#FF6F59"/>
</linearGradient>
</defs>
</svg>
